<svg xmlns="http://www.w3.org/2000/svg" width="1069" height="1070"><path d="M0 0v390c10.762-8.761 18.894-23.051 27.424-34 17.134-21.99 34.164-44.063 51.366-66 7.593-9.683 17.215-28.815 28.3-34.351 9.231-4.61 21-6.51 30.91-9.358 19.029-5.469 37.995-11.162 57-16.715 56.027-16.371 111.86-33.455 168-49.436 22.723-6.468 45.276-13.531 68-20 5.956-1.695 21.317-3.447 24.972-8.65 2.004-2.852 1.028-8.194 1.028-11.49V0H0z" style="fill:#fff;stroke:none"/><path d="M457 0v138c0 3.714 1.034 9.432-1.028 12.722-4.536 7.239-27.005 9.608-34.972 11.998-33.612 10.082-67.317 19.863-101 29.704-48.029 14.034-95.9 28.646-144 42.435-16.366 4.691-32.693 9.53-49 14.421-6.77 2.031-15.705 3.023-21.7 6.859-8.403 5.377-14.967 18.052-21.09 25.861-15.348 19.573-33.037 38.917-46.21 60h178c28.481 0 59.823 3.717 88-.3 52.501-7.485 105.059-20.942 157-31.697 84.89-17.577 169.993-34.204 255-51.203 39.404-7.88 79.149-18.654 119-23.8v107h234V200l-57 6.718-114 14.437-42 5.269-21 1.719-32-19.093-58-35.25L538 48l-53-32.203L457 0z" style="fill:#5c97d1;stroke:none"/><path d="M459 0v1c33.955 15.873 66.025 39.6 98 59.189 56.528 34.632 113.648 68.32 170 103.235 24.208 15 48.717 29.51 73 44.387 10.364 6.349 23.196 17.729 35 20.675 6.368 1.59 15.546-1.173 22-2.062 13.968-1.924 27.999-3.593 42-5.269 37.696-4.513 75.304-9.797 113-14.31 18.78-2.249 38.09-6.455 57-6.845V0H459m377 231v2h2l-2-2M151 372v395c-32.591-15.425-66.022-29.28-99-43.86-16.147-7.139-34.641-19.046-52-22.14v369h799v-1L513 964.947l-78-28.371L388 920v149c-34.346-37.32-63.116-81.671-93.884-122C246.848 885.043 197.463 824.29 152 761l462 36.089 153 12L835 814V235l-49 9.4-96 19.4-365 73.4-117 23.6-57 11.2z" style="fill:#fff;stroke:none"/><path d="M27 356h136l69-.089L300 343l-20-1H54l-15.96 1.028L27 356m808-14v14h234v-14H835z" style="fill:#4c8ecb;stroke:none"/><path d="M24 361c60.511 0 122.654 4.14 183-.089 7.762-.544 15.237-3.293 23-3.911-12.169-5.107-33.747-1-47-1H38c-5.803 0-11.067-.816-14 5m811-5v5h234v-5H835z" style="fill:#5c97d1;stroke:none"/><path d="M0 632h151V372l54-10c-6.436-2.701-16.049-1-23-1H52c-7.699 0-23.367-2.963-29.826 1.603C-4.728 381.623 0 412.488 0 441v191m835-271v271h234V361H835z" style="fill:#4c8ecb;stroke:none"/><path d="M0 632v69l41 17.694L151 767V632H0m835 0v182c-60.453 0-121.694-9.757-182-13.911-121.406-8.36-242.594-19.818-364-28.178-45.644-3.144-91.294-8.948-137-10.911l33.424 45 13.876 16.397L217 823h852V632H835z" style="fill:#3782c3;stroke:none"/><path d="m199 823 42.349 56 78.767 103 43.511 57L388 1069V920c34.52 9.423 68.383 24.652 102 36.947 65.967 24.126 132.033 47.983 198 72.103 27.317 9.99 54.53 20.39 82 29.95 8.125 2.83 22.422 11.61 31 10.28 4.795-.75 9.374-6.15 13-9.08 9.727-7.87 19.295-15.92 29-23.81 36.128-29.37 71.791-59.318 108-88.587 27.815-22.483 55.52-45.158 83-68.05 9.64-8.028 28.03-17.785 33.97-28.842 3.64-6.773 1.03-20.314 1.03-27.911H199z" style="fill:#277abe;stroke:none"/><path d="M1068 851 937 958.424 802 1069v1h267V872l-1-21z" style="fill:#fff;stroke:none"/></svg>