<svg xmlns="http://www.w3.org/2000/svg" xmlns:xlink="http://www.w3.org/1999/xlink" viewBox="0 0 73.275 75.76"><defs><linearGradient id="a" x1="34.64" x2="19" y1="15.35" y2="30.99" gradientUnits="userSpaceOnUse"><stop offset=".18" stop-color="#0052cc"/><stop offset="1" stop-color="#2684ff"/></linearGradient><linearGradient xlink:href="#a" id="c" x1="38.78" x2="54.39" y1="60.28" y2="44.67" gradientTransform="translate(-.003)"/><linearGradient xlink:href="#a" id="b" x1="34.64" x2="19" y1="15.35" y2="30.99" gradientTransform="translate(-.003)" gradientUnits="userSpaceOnUse"/></defs><path fill="#2684ff" d="m72.397 35.76-32.6-32.6L36.637 0l-24.54 24.54L.877 35.76a3 3 0 0 0 0 4.24l22.42 22.42 13.34 13.34 24.54-24.54.38-.38L72.397 40a3 3 0 0 0 0-4.24zm-35.76 13.32-11.2-11.2 11.2-11.2 11.2 11.2z"/><path fill="url(#b)" d="M36.637 26.68a18.86 18.86 0 0 1-.08-26.59l-24.51 24.5 13.34 13.34 11.25-11.25z"/><path fill="url(#c)" d="m47.867 37.85-11.23 11.23a18.86 18.86 0 0 1 0 26.68l24.57-24.57z"/></svg>