<svg xmlns="http://www.w3.org/2000/svg" viewBox="0 0 400 400"><defs><linearGradient id="linear-gradient" x1="109.36" x2="223.31" y1="201.96" y2="201.96" gradientTransform="rotate(6.74 414.38 250.811)" gradientUnits="userSpaceOnUse"><stop offset="0" stop-color="#f1ceba"/><stop offset="1" stop-color="#b8846f"/></linearGradient><clipPath id="clip-path" transform="translate(-100 458)"><path id="SVGID" d="M500-258c0 110.45-89.55 200-200 200s-200-89.53-200-200 89.54-200 200-200 200 89.55 200 200z" class="cls-1"/></clipPath><style>.cls-1{fill:none}</style></defs><g style="isolation:isolate"><g id="Layer_1" data-name="Layer 1"><path fill="#fff" d="M400 200c0 110.45-89.55 200-200 200S0 310.47 0 200 89.54 0 200 0s200 89.55 200 200z"/><g clip-path="url(#clip-path)"><path d="m363.76 233 24.3-101.16A200.63 200.63 0 0 0 285.07 19l-36.52 197-136.07 110.48z" opacity=".05"/><path fill="#f38632" d="M200 0a200 200 0 0 0-53.91 7.41l-17.92 66.18 37.3 5.29 38.46 13.21 34.74 17.42 27.67-98.18A199.57 199.57 0 0 0 200 0z"/><path fill="#4e4e4e" d="m149.95 264.59-37.47 61.89 4.47-72.65 10.98.44 13.4 3.71 8.62 6.61z"/><path fill="url(#linear-gradient)" d="m149.95 264.59-8.62-6.61-13.4-3.71-10.98-.44 11.23-180.24 37.3 5.29 38.46 13.21 34.74 17.41-88.73 155.09z"/><path fill="#f6a259" d="m146.1 7.41-17.92 66.18 37.3 5.29L188.17.38a199.44 199.44 0 0 0-42.07 7.03z"/><path fill="#1a1a1a" d="M366.35-446.68a198.51 198.51 0 0 0-35.51-8.95l-26.9 89.72-91.46 234.39L250-193.41l88.68-155.09z" opacity=".2" style="mix-blend-mode:multiply" transform="translate(-100 458)"/><path fill="#fff" d="m112.48 325.54 53-246.67-37.3-5.28-15.7 251.95z" opacity=".15"/><path d="M400 200c0 110.45-89.55 200-200 200S0 310.47 0 200 89.54 0 200 0s200 89.55 200 200z" class="cls-1"/></g></g></g></svg>